Coordinates
version=1
nRows=43
nColumns=12
inDegrees=yes

Units are S.I. units (second, meters, Newtons, ...)
Angles are in degrees

endheader
time	SC_y	SC_z	SC_x	AC_y	AC_z	AC_x	GH_y	GH_z	GH_yy	EL_x	PS_y
       0.0              -38.17          39.33           64.9          68.76         -8.211         -19.15         -56.76          69.08          70.74          124.3          8.749
   0.02264              -38.17          39.33           64.9          68.75          -8.21         -19.15         -56.76          69.07          70.74          124.3          8.756
   0.04528              -38.18          39.32           64.9          68.75         -8.209         -19.14         -56.77          69.06          70.75          124.3          8.764
   0.06792              -38.18          39.32           64.9          68.74         -8.208         -19.14         -56.77          69.05          70.76          124.3          8.772
   0.09056              -38.18          39.32           64.9          68.74         -8.207         -19.13         -56.78          69.04          70.77          124.3          8.781
    0.1132              -38.18          39.32           64.9          68.73         -8.206         -19.12         -56.79          69.03          70.78          124.3          8.791
    0.1358              -38.18          39.32          64.91          68.72         -8.205         -19.12         -56.79          69.02          70.79          124.2          8.801
    0.1585              -38.19          39.32          64.91          68.71         -8.203         -19.11          -56.8           69.0           70.8          124.2          8.811
    0.1811              -38.19          39.32          64.91          68.71         -8.202          -19.1         -56.81          68.99          70.81          124.2          8.823
    0.2038              -38.19          39.31          64.91           68.7         -8.201          -19.1         -56.82          68.97          70.82          124.2          8.835
    0.2264              -38.19          39.31          64.92          68.69         -8.199         -19.09         -56.83          68.96          70.84          124.2          8.849
     0.249               -38.2          39.31          64.92          68.68         -8.197         -19.08         -56.84          68.94          70.85          124.1          8.863
    0.2717               -38.2          39.31          64.92          68.67         -8.196         -19.07         -56.85          68.92          70.87          124.1          8.878
    0.2943               -38.2          39.31          64.93          68.65         -8.194         -19.06         -56.86           68.9          70.88          124.1          8.895
    0.3169              -38.21           39.3          64.93          68.64         -8.192         -19.05         -56.88          68.87           70.9          124.0          8.913
    0.3396              -38.21           39.3          64.93          68.63         -8.189         -19.03         -56.89          68.85          70.92          124.0          8.933
    0.3622              -38.22           39.3          64.94          68.61         -8.187         -19.02          -56.9          68.82          70.94          124.0          8.954
    0.3849              -38.22           39.3          64.94           68.6         -8.184         -19.01         -56.92          68.79          70.96          123.9          8.977
    0.4075              -38.23          39.29          64.95          68.58         -8.181         -18.99         -56.94          68.76          70.99          123.9          9.002
    0.4301              -38.23          39.29          64.95          68.56         -8.178         -18.97         -56.96          68.73          71.02          123.8           9.03
    0.4528              -38.24          39.29          64.96          68.54         -8.174         -18.95         -56.98          68.69          71.05          123.8           9.06
    0.4754              -38.25          39.28          64.97          68.51         -8.171         -18.93         -57.01          68.65          71.08          123.7          9.094
    0.4981              -38.25          39.28          64.97          68.49         -8.166         -18.91         -57.03           68.6          71.12          123.6          9.131
    0.5207              -38.26          39.27          64.98          68.46         -8.162         -18.88         -57.06          68.55          71.16          123.6          9.172
    0.5433              -38.27          39.26          64.99          68.42         -8.156         -18.85          -57.1          68.49           71.2          123.5          9.217
     0.566              -38.28          39.26           65.0          68.39          -8.15         -18.82         -57.13          68.43          71.25          123.4          9.268
    0.5886              -38.29          39.25          65.01          68.35         -8.144         -18.79         -57.17          68.35          71.31          123.3          9.325
    0.6113              -38.31          39.24          65.03           68.3         -8.136         -18.75         -57.22          68.27          71.37          123.2          9.389
    0.6339              -38.32          39.23          65.04          68.25         -8.128          -18.7         -57.27          68.18          71.45          123.0          9.461
    0.6565              -38.34          39.22          65.06          68.19         -8.118         -18.65         -57.33          68.08          71.53          122.9          9.543
    0.6792              -38.36          39.21          65.08          68.12         -8.108         -18.59          -57.4          67.96          71.62          122.7          9.637
    0.7018              -38.38           39.2           65.1          68.04         -8.095         -18.52         -57.48          67.82          71.73          122.5          9.744
    0.7245              -38.41          39.18          65.12          67.96         -8.081         -18.44         -57.57          67.66          71.85          122.3          9.869
    0.7471              -38.44          39.16          65.15          67.85         -8.064         -18.35         -57.67          67.48          71.99          122.0          10.01
    0.7697              -38.48          39.14          65.19          67.73         -8.044         -18.25          -57.8          67.27          72.16          121.7          10.18
    0.7924              -38.52          39.11          65.23          67.59         -8.021         -18.12         -57.94          67.02          72.36          121.3          10.38
     0.815              -38.57          39.08          65.27          67.42         -7.994         -17.97         -58.11          66.72           72.6          120.9          10.62
    0.8376              -38.63          39.05          65.33          67.22         -7.961         -17.79         -58.32          66.36          72.88          120.4           10.9
    0.8603               -38.7           39.0           65.4          66.97         -7.921         -17.57         -58.57          65.92          73.22          119.7          11.24
    0.8829              -38.79          38.95          65.48          66.67         -7.873         -17.31         -58.87          65.39          73.64          119.0          11.66
    0.9056               -38.9          38.88          65.59           66.3         -7.813         -16.98         -59.24          64.74          74.15          118.0          12.18
    0.9282              -39.04          38.79          65.72          65.83         -7.738         -16.57         -59.71          63.92          74.79          116.8          12.82
    0.9508              -39.21          38.69          65.88          65.25         -7.643         -16.06          -60.3          62.89           75.6          115.3          13.64
